<svg width="1080" height="1080" viewBox="0 0 1080 1080" fill="none" xmlns="http://www.w3.org/2000/svg">
<rect width="1080" height="1080" fill="#D0342C"/>
<path d="M170.608 753.5C156.522 753.5 143.549 749.979 131.688 742.936C120.197 735.893 110.93 726.627 103.888 715.136C96.8448 703.275 93.3235 690.301 93.3235 676.216V430.464C93.3235 416.379 96.8448 403.591 103.888 392.1C110.93 380.239 120.197 370.787 131.688 363.744C143.549 356.701 156.522 353.18 170.608 353.18H492.532V427.128H186.176C180.245 427.128 175.426 428.796 171.72 432.132C168.384 435.468 166.716 440.287 166.716 446.588V660.092C166.716 666.023 168.384 670.841 171.72 674.548C175.426 677.884 180.245 679.552 186.176 679.552H492.532V753.5H170.608ZM604.991 703.46V625.62H528.819V552.784H604.991V476.056H677.827V552.784H756.223V625.62H677.827V703.46H604.991ZM854.214 703.46V625.62H778.042V552.784H854.214V476.056H927.05V552.784H1005.45V625.62H927.05V703.46H854.214Z" fill="white"/>
</svg>
